<?xml version="1.0" encoding="iso-8859-1"?>
<!-- Generator: Adobe Illustrator 19.0.0, SVG Export Plug-In . SVG Version: 6.00 Build 0)  -->
<svg xmlns="http://www.w3.org/2000/svg" xmlns:xlink="http://www.w3.org/1999/xlink" version="1.1" id="Layer_1" x="0px" y="0px" viewBox="0 0 512 512" style="enable-background:new 0 0 512 512;" xml:space="preserve">
<g>
	<path style="fill:#3E448A;" d="M104.439,178.988v-52.07h63.367v123.902c0,0-63.367,15.696-63.367,0   S104.439,178.988,104.439,178.988z"/>
	<path style="fill:#3E448A;" d="M351.942,178.988v-52.07h63.367v123.902c0,0-63.367,15.696-63.367,0   S351.942,178.988,351.942,178.988z"/>
</g>
<polygon style="fill:#4AA9E7;" points="427.394,453.354 427.394,191.321 84.74,191.321 84.74,250.819 84.74,282.531 84.74,504.351   427.394,504.351 427.394,485.992 "/>
<polygon style="opacity:0.3;fill:#3C7BB8;enable-background:new    ;" points="374.421,191.321 374.421,401.295 374.421,433.932   374.421,452.29 84.804,452.29 84.804,504.351 427.457,504.351 427.457,485.992 427.457,453.354 427.457,191.321 "/>
<circle style="fill:#B9DEF3;" cx="266.589" cy="362.88" r="93.119"/>
<polygon style="fill:#608ECF;" points="84.601,191.321 156.621,157.562 104.439,126.918 415.51,126.918 359.35,160.676   427.394,191.321 "/>
<polygon style="fill:#3C7BB8;" points="156.621,191.321 156.621,157.562 84.601,191.321 "/>
<path d="M427.394,478.342c-4.226,0-7.649,3.424-7.649,7.649v10.709H92.39V282.532c0-4.226-3.424-7.649-7.649-7.649  c-4.226,0-7.649,3.424-7.649,7.649v221.819c0,4.226,3.424,7.649,7.649,7.649h342.654c4.226,0,7.649-3.424,7.649-7.649v-18.359  C435.043,481.766,431.619,478.342,427.394,478.342z"/>
<path d="M435.034,191.127c-0.004-0.165-0.01-0.33-0.024-0.494c-0.01-0.112-0.027-0.221-0.041-0.333  c-0.017-0.131-0.035-0.261-0.059-0.391c-0.025-0.135-0.056-0.266-0.089-0.398c-0.026-0.103-0.05-0.206-0.08-0.308  c-0.042-0.144-0.089-0.285-0.138-0.424c-0.032-0.091-0.063-0.182-0.099-0.27c-0.055-0.139-0.115-0.274-0.177-0.409  c-0.043-0.091-0.085-0.182-0.131-0.271c-0.063-0.122-0.13-0.242-0.199-0.36c-0.058-0.1-0.117-0.199-0.18-0.296  c-0.065-0.101-0.134-0.199-0.204-0.297c-0.077-0.108-0.155-0.214-0.238-0.318c-0.065-0.083-0.134-0.162-0.202-0.241  c-0.095-0.109-0.191-0.217-0.293-0.321c-0.069-0.071-0.14-0.139-0.212-0.207c-0.106-0.101-0.213-0.201-0.325-0.296  c-0.082-0.069-0.166-0.135-0.251-0.201c-0.107-0.083-0.213-0.165-0.325-0.244c-0.107-0.074-0.217-0.144-0.328-0.213  c-0.096-0.06-0.192-0.12-0.291-0.176c-0.14-0.079-0.285-0.15-0.429-0.22c-0.061-0.03-0.118-0.064-0.182-0.093l-7.187-3.237v-54.191  c0-4.226-3.424-7.649-7.649-7.649c-0.04,0-0.079,0.005-0.117,0.006c-0.024,0-0.047-0.006-0.071-0.006h-81.556V78.705  C333.953,35.307,298.646,0,255.249,0c-5.377,0-10.758,0.553-15.991,1.644c-4.137,0.862-6.79,4.913-5.928,9.049  c0.862,4.136,4.917,6.798,9.049,5.928c4.208-0.876,8.539-1.322,12.869-1.322c34.962,0,63.406,28.444,63.406,63.406v26.16  c-14.341-19.478-37.418-32.147-63.406-32.147s-49.065,12.669-63.405,32.146V78.705c0-19.04,8.531-36.934,23.406-49.093  c3.271-2.673,3.755-7.493,1.081-10.764c-2.671-3.269-7.491-3.754-10.764-1.081c-18.443,15.077-29.022,37.289-29.022,60.938v40.563  h-72.106c-0.393,0-0.775,0.039-1.153,0.096c-0.066,0.01-0.134,0.018-0.2,0.031c-0.367,0.065-0.725,0.156-1.072,0.272  c-0.05,0.017-0.099,0.037-0.149,0.054c-0.358,0.127-0.706,0.275-1.036,0.453c-0.001,0.001-0.003,0.001-0.005,0.002  c-0.329,0.177-0.641,0.383-0.939,0.605c-0.052,0.039-0.104,0.075-0.154,0.115c-0.282,0.221-0.549,0.46-0.797,0.717  c-0.044,0.046-0.085,0.094-0.127,0.141c-0.247,0.269-0.48,0.552-0.687,0.855c-0.005,0.007-0.01,0.012-0.014,0.019  c-0.213,0.314-0.397,0.65-0.562,0.994c-0.024,0.051-0.05,0.1-0.073,0.151c-0.155,0.344-0.285,0.701-0.389,1.07  c-0.006,0.023-0.018,0.044-0.024,0.066c-0.009,0.033-0.009,0.065-0.018,0.097c-0.096,0.373-0.172,0.755-0.211,1.147  c-0.002,0.016-0.001,0.033-0.002,0.049c-0.021,0.236-0.036,0.472-0.036,0.714v50.241l-15.437,7.235  c-3.229,1.514-4.897,4.996-4.262,8.344v58.08c0,4.226,3.424,7.649,7.649,7.649s7.649-3.424,7.649-7.649v-51.849h84.155v26.567  c0,4.226,3.424,7.649,7.649,7.649c4.226,0,7.649-3.424,7.649-7.649v-26.567h126.811v26.567c0,4.226,3.424,7.649,7.649,7.649  s7.649-3.424,7.649-7.649v-26.567h85.791V453.35c0,4.226,3.424,7.649,7.649,7.649s7.649-3.424,7.649-7.649V191.321  C435.043,191.256,435.035,191.192,435.034,191.127z M367,172.511l24.78,11.16H367V172.511z M375.817,159.703l32.233-19.376v33.891  L375.817,159.703z M255.249,88.018c23.232,0,43.573,12.567,54.616,31.252H200.634C211.676,100.584,232.018,88.018,255.249,88.018z   M112.089,140.281l28.133,16.521l-28.133,13.187V140.281z M148.972,183.671h-30.029l30.029-14.075V183.671z M164.271,183.671  v-26.109c0-0.193-0.014-0.381-0.029-0.57c-0.004-0.054-0.003-0.108-0.008-0.162c-0.031-0.318-0.083-0.628-0.15-0.933  c-0.013-0.062-0.032-0.121-0.047-0.184c-0.063-0.256-0.14-0.506-0.228-0.751c-0.022-0.063-0.044-0.125-0.068-0.188  c-0.23-0.587-0.529-1.138-0.89-1.644c-0.045-0.062-0.092-0.123-0.138-0.185c-0.153-0.202-0.316-0.396-0.488-0.581  c-0.044-0.048-0.085-0.097-0.131-0.143c-0.216-0.221-0.446-0.429-0.687-0.624c-0.046-0.037-0.095-0.07-0.142-0.106  c-0.215-0.165-0.441-0.318-0.673-0.46c-0.034-0.02-0.062-0.046-0.096-0.065l-27.925-16.399h45.811  c-1.19,5.434-1.837,11.069-1.837,16.855v32.248h-12.275V183.671z M191.844,183.671v-32.248c0-5.836,0.809-11.484,2.292-16.855  h122.226c1.483,5.371,2.292,11.019,2.292,16.855v32.248H191.844z M332.117,134.567h55.82l-32.527,19.553  c-0.033,0.02-0.061,0.046-0.094,0.066c-0.242,0.151-0.475,0.312-0.698,0.488c-0.031,0.024-0.064,0.046-0.094,0.07  c-0.24,0.195-0.464,0.407-0.679,0.629c-0.055,0.057-0.107,0.117-0.16,0.176c-0.166,0.184-0.323,0.374-0.471,0.574  c-0.042,0.056-0.086,0.111-0.126,0.168c-0.18,0.256-0.345,0.521-0.492,0.798c-0.014,0.027-0.026,0.054-0.039,0.08  c-0.131,0.252-0.244,0.512-0.346,0.779c-0.025,0.066-0.05,0.134-0.073,0.201c-0.092,0.262-0.17,0.528-0.234,0.803  c-0.009,0.039-0.021,0.075-0.03,0.114c-0.065,0.305-0.111,0.616-0.139,0.933c-0.007,0.081-0.008,0.161-0.012,0.242  c-0.008,0.145-0.021,0.288-0.021,0.434v22.995h-17.748v-32.248C333.953,145.637,333.308,140.001,332.117,134.567z"/>
<path d="M367.35,362.883c0-55.563-45.202-100.765-100.765-100.765S165.82,307.32,165.82,362.883s45.202,100.765,100.765,100.765  S367.35,418.445,367.35,362.883z M181.119,362.883c0-47.126,38.34-85.466,85.466-85.466s85.466,38.34,85.466,85.466  s-38.34,85.466-85.466,85.466S181.119,410.008,181.119,362.883z"/>
<path d="M272.337,398.459c-4.226,0-7.649,3.424-7.649,7.649c0,4.226,3.424,7.649,7.649,7.649c29.517,0,53.531-24.014,53.531-53.531  c0-29.518-24.014-53.532-53.531-53.532c-27.311,0-49.895,20.563-53.121,47.018l-6.966-6.967c-2.988-2.986-7.831-2.986-10.818,0  c-2.987,2.988-2.987,7.831,0,10.818l19.614,19.614c1.494,1.493,3.452,2.24,5.41,2.24s3.915-0.747,5.41-2.24l19.614-19.614  c2.987-2.988,2.987-7.831,0-10.818c-2.988-2.986-7.831-2.986-10.818,0l-5.776,5.776c3.575-17.401,19.008-30.528,37.452-30.528  c21.082,0,38.232,17.151,38.232,38.233C310.569,381.308,293.419,398.459,272.337,398.459z"/>
<g>
</g>
<g>
</g>
<g>
</g>
<g>
</g>
<g>
</g>
<g>
</g>
<g>
</g>
<g>
</g>
<g>
</g>
<g>
</g>
<g>
</g>
<g>
</g>
<g>
</g>
<g>
</g>
<g>
</g>
</svg>
