<svg xmlns="http://www.w3.org/2000/svg" version="1.1" xmlns:xlink="http://www.w3.org/1999/xlink" xmlns:svgjs="http://svgjs.dev/svgjs" width="2000" height="2250" viewBox="0 0 2000 2250"><g transform="matrix(1,0,0,1,0.00014687500004129106,0)"><svg viewBox="0 0 320 360" data-background-color="#ffffff" preserveAspectRatio="xMidYMid meet" height="2250" width="2000" xmlns="http://www.w3.org/2000/svg" xmlns:xlink="http://www.w3.org/1999/xlink"><g id="tight-bounds" transform="matrix(1,0,0,1,0.000023499999997511622,0)"><svg viewBox="0 0 320 360" height="360" width="320"><g><svg></svg></g><g><svg viewBox="0 0 320 360" height="360" width="320"><g><path transform="translate(-74.99272,-51.79039) scale(4.65793,4.65793)" d="M20.6 59.9l0.8 1-0.4-1.3c-0.1-0.6-0.8 0.1-0.4 0.3M21.5 59.3c0.3 0.5 0.6 1 0.6 1.5 0 0.7 0.6 1 1.1 1.2-0.7-0.8-1.1-3-1.7-2.7M59.9 16.9c1.7 0 3.3-0.2 5.1 0.2 4.4 1.1 8.1 3.3 10.6 6.4l7 11.2c0.3 2.8 0.9 5.9 0.8 9.3 0.7 0 0.6-1 1.4-1.2-0.8 2-1.2 4.5-1.4 7.4-0.5-1.6 0-4 0.1-5.3-0.7 1.1-1.1 0.3-1.1-0.2 0.1-0.8-0.3-0.7-0.6-1-1.1-1-1.8-2.1-2.6-3.8 0.5-1.3 0.6-3.2-1-4.2-0.5-0.3-1.1-0.8-1.4-1.6-0.4-1.1-1.1-2.4-0.9-4.1 0.1-0.5-1.5 1.1-2.4 0.4-3.9-2.7-7.8-5.8-12.5-8.4-2.5 0-4.3-0.9-5.2-2-0.8-1-0.2-2.3 1-2.4 0.7 0 1.5-0.2 2.1 0.2 0.1-0.4 0.5-0.9 1-0.9M50 14.6l0.2 0.1c1 0.2 1.5 1.6 2.6 1.1 0 0.7 0.1 1.4-0.1 1.9-0.3 0.8-1.2 0.8-1.9 0.8-6.7-0.4-10.6 2.4-14.7 4.8-1.1 0.7-2.3 1.2-3.2 2.1-4.3 4-9 7.7-10.1 15.1l-0.9 8.2c-0.1 0.9-1.1 1.8-0.9 2.9l0.7 4.9c-0.7-0.7-1.1 0.2-0.9 0.6 0.1 0.3 0.5 1.3 1.1 0.4 0.8 1.5 1.6 4.4 2.7 5.7 3.4 4 7.8 7.6 11.4 11.2 0.9-0.2 1.6-0.2 1.8-0.8 0.3 0.6-0.3 1.2-0.8 1.3 1.6 1 3.4 1.9 5.8 2.1 3.1 0.2 6 0.7 8.7 1.4 1.4-0.4 2.8-0.6 4.3-0.7 0.5 0 0.8-0.8 1.4-1l0.1-1c0.6 0.9 0.5-0.3 0.1-0.9 0.7 0.6 0.9 1.1 1.2 1.5 0-0.3 0.8-1.4 0.8-0.1l0.2-1.3c0.3-0.2 0.4 1.1 0.7 0.2 0.3-0.9 0.9-0.2 1.5-0.5-0.2 0.4-0.1 1.2 0.6 0.7l0.8-0.7c0.5 1.2 1.3 0.7 1.7 0.5 4.4-2.8 8.8-6.1 13-9.4l-0.1 1.3 0.5-1.6c0.5 0.5 0.9 0.1 1.1-0.2 0.6-1 1.4-2 2.7-2.9-1.6 4.3-3.5 7.7-5.9 10.5l-1 1.2c0 0.7-0.2 1.6-1 1.7-0.4 0.1-1.2-0.2-1.8 0.4-0.3 0.4 0.7 1.2-0.1 0.6-0.7-0.5-1.4 0-2.2 0.2-0.6 0.2 0.4 0.8 0.6 1.2 0.2 0.4 0.4 0.8 0.3 1.3l-1.1-1.2c-1.3 0.7-2.1 2-3.2 3-0.5 0.4-0.3 1.1-0.3 1.7-0.7 0-1.5-0.2-1.9 0.2-0.3 0.4-0.2 1-0.2 1.6-1-0.1-1.1-1.6-2-1.3-0.9 0.2-1.9 0.3-2.7 0.8 0.6 1.2-1 0.5-0.8 0.7-1.5-0.9-2.8-1.6-4.4-1-3.4-1.1-7.6-0.6-10.7-0.2 0-0.5 0.1-1-0.1-1.1-0.2 0.5-0.8 0.3-0.7 0.3-1.9-1.3-3.8-2.1-5.8-3.2-1.8 0.2-3.5-0.7-4-1.2-1.4-1.3-3-0.6-4.3-0.9-2.8-0.7-3.8-3.6-4.1-5.6-0.2-1-1-1.4-1.3-1.3-1.3-4.2-3.3-8-4.9-11.9-0.4-1-0.3-2-0.3-3.1 0.5 0.2 1 0.1 0.9-0.6-0.5-3.3-1.7-5.8-3-8.2 0.7-3.4 0.8-7.4 2.4-10.4 1.4-2.7 4-4.1 5.8-6.4 0.6-0.8 0.6-1.9 1.2-2.6 2-2 4-4.1 6.2-5.9 1-0.8 2.2 0 3.7-0.3 0.5-1.8 2.5-3.4 4.4-2.9 0.8 0.2 2.4-1.9 2.9-2.1 0.8-0.3 0.4 0.8 0.4 1.5 1.9-1.5 4.5-2.3 6.9-3.2" fill="#ffffff" fill-rule="nonzero" stroke="none" stroke-width="1" stroke-linecap="butt" stroke-linejoin="miter" stroke-miterlimit="10" stroke-dasharray="" stroke-dashoffset="0" font-family="none" font-weight="none" font-size="none" text-anchor="none" style="mix-blend-mode: normal" data-fill-palette-color="tertiary"></path></g><g transform="matrix(1,0,0,1,64,92.01342277662744)"><svg viewBox="0 0 192 175.97315444674513" height="175.97315444674513" width="192"><g><svg viewBox="0 0 192 175.97315444674513" height="175.97315444674513" width="192"><g><svg viewBox="0 0 192 175.97315444674513" height="175.97315444674513" width="192"><g transform="matrix(1,0,0,1,0,104.57654129499923)"><svg viewBox="0 0 192 71.39661315174588" height="71.39661315174588" width="192"><g id="textblocktransform"><svg viewBox="0 0 192 71.39661315174588" height="71.39661315174588" width="192" id="textblock"><g><svg viewBox="0 0 192 40.47601435875122" height="40.47601435875122" width="192"><g transform="matrix(1,0,0,1,0,0)"><svg width="192" viewBox="0.78 -38.11 224.42 47.309999999999995" height="40.47601435875122" data-palette-color="#0080ff"><path d="M14.09 0.44L14.09 0.44Q4.69 0.44 4.69-9.35L4.69-9.35 4.69-18.99 0.78-18.99 0.78-26.15 4.69-26.15 4.69-31.74 16.38-34.35 16.38-26.15 21.07-26.15 21.07-18.99 16.38-18.99 16.38-10.21Q16.38-9.11 17.21-8.37 18.04-7.64 19.29-7.64L19.29-7.64Q20.19-7.64 21.07-7.79L21.07-7.79 21.07-1Q17.85 0.44 14.09 0.44ZM39.91 0.44L39.91 0.44Q35.47 0.44 32.18-1.2L32.18-1.2Q28.83-2.81 26.98-5.93 25.12-9.06 25.12-13.35L25.12-13.35Q25.12-17.63 26.98-20.61L26.98-20.61Q28.83-23.61 32.18-25.13 35.52-26.66 39.91-26.66L39.91-26.66Q44.43-26.66 47.76-25.1 51.1-23.54 52.93-20.57 54.76-17.6 54.76-13.35L54.76-13.35Q54.76-9.06 52.93-5.93L52.93-5.93Q51.07-2.81 47.71-1.18 44.36 0.44 39.91 0.44ZM39.91-6.69L39.91-6.69Q41.53-6.69 42.31-8.28L42.31-8.28Q43.06-9.81 43.06-13.35L43.06-13.35Q43.06-16.6 42.32-18.05 41.57-19.51 39.91-19.51L39.91-19.51Q38.33-19.51 37.57-18.05 36.81-16.6 36.81-13.35L36.81-13.35Q36.81-9.89 37.6-8.28L37.6-8.28Q38.38-6.69 39.91-6.69ZM78.51 1.49L82.27 1.49 82.27 9.2 65.38 9.2 65.38 1.49 70.33 1.49 71.67-0.76 60.27-18.6 57.17-18.6 57.17-26.15 75.48-26.15 75.48-18.6 73.07-18.6 77.12-11.11 80.83-18.6 78.17-18.6 78.17-26.15 91.82-26.15 91.82-18.6 89.18-18.6 78.51 1.49ZM111.61-7.35L115.37-7.35 115.37 0 95.62 0 95.62-7.35 99.92-7.35 99.92-29.86 95.62-29.86 95.62-36.5 111.61-38.11 111.61-7.35ZM128.14 0.44L128.14 0.44Q125.65 0.44 123.62-0.54L123.62-0.54Q121.57-1.49 120.35-3.3 119.13-5.1 119.13-7.5L119.13-7.5Q119.13-10.08 120.57-11.89L120.57-11.89Q122.01-13.65 124.34-14.53 126.67-15.41 129.38-15.41L129.38-15.41Q132.58-15.41 135.54-14.45L135.54-14.45 135.54-15.55Q135.54-17.5 133.89-18.53 132.24-19.56 129.43-19.56L129.43-19.56Q128.24-19.56 126.75-19.26 125.26-18.97 123.84-18.46 122.43-17.94 121.38-17.31L121.38-17.31 120.67-17.6 120.67-24.71Q123.62-25.76 126.7-26.21 129.78-26.66 132.44-26.66L132.44-26.66Q147.28-26.66 147.28-18.31L147.28-18.31 147.28-7.35 149.57-7.35 149.57 0 137.07 0 135.98-4Q134.93-1.95 132.7-0.76 130.48 0.44 128.14 0.44ZM132.73-5.81L132.73-5.81Q133.53-5.81 134.38-6.08 135.22-6.35 135.54-6.64L135.54-6.64 135.54-10.74Q135.17-10.79 134.37-11.04L134.37-11.04Q133.53-11.25 132.92-11.25L132.92-11.25Q131.63-11.25 130.86-10.45 130.09-9.64 130.09-8.3L130.09-8.3Q130.09-7.3 130.81-6.56 131.53-5.81 132.73-5.81ZM185.83-16.6L185.83-16.6 185.83-7.06 189.22-7.06 189.22 0 174.11 0 174.11-16.65Q174.11-17.7 173.44-18.51 172.77-19.31 171.81-19.31L171.81-19.31Q170.03-19.31 169.57-17.53L169.57-17.53Q169.08-15.7 169.08-12.4L169.08-12.4 169.08-7.06 169.13-7.06 169.13 0 153.87 0 153.87-7.06 157.41-7.06 157.41-18.6 153.87-18.6 153.87-25.2 169.08-26.66 169.08-23Q170.76-25 172.91-25.83 175.06-26.66 177.77-26.66L177.77-26.66Q185.83-26.66 185.83-16.6ZM202.96 0.44L202.96 0.44Q199.42 0.44 196.84-1.44L196.84-1.44Q194.27-3.32 192.94-6.48 191.61-9.64 191.61-13.45L191.61-13.45Q191.61-16.89 192.98-19.97L192.98-19.97Q194.35-23 196.85-24.83 199.35-26.66 202.77-26.66L202.77-26.66Q205.26-26.66 207.04-25.85 208.82-25.05 210.36-23.46L210.36-23.46 210.36-29.86 206.45-29.86 206.45-36.5 222.1-38.11 222.1-7.35 225.2-7.35 225.2 0 210.17 0 210.17-3.15Q208.97-1.54 207.11-0.57 205.26 0.39 202.96 0.44ZM206.87-6.69L206.87-6.69Q208.02-6.69 208.94-7.24 209.87-7.79 210.36-8.54L210.36-8.54 210.36-17.8Q209.8-18.46 208.86-18.98 207.92-19.51 206.87-19.51L206.87-19.51Q204.97-19.51 203.77-17.96 202.57-16.41 202.57-13.45L202.57-13.45Q202.57-10.45 203.67-8.57 204.77-6.69 206.87-6.69Z" opacity="1" transform="matrix(1,0,0,1,0,0)" fill="#ffffff" class="wordmark-text-0" data-fill-palette-color="primary" id="text-0"></path></svg></g></svg></g><g transform="matrix(1,0,0,1,0,46.38243627803764)"><svg viewBox="0 0 192 25.01417687370825" height="25.01417687370825" width="192"><g transform="matrix(1,0,0,1,0,0)"><svg width="192" viewBox="1.68 -39.79 379.84999999999997 49.48" height="25.01417687370825" data-palette-color="#0080ff"><path d="M10.28-28.71L10.28-28.71Q7.23-28.71 5.22-30.15 3.22-31.59 3.22-34.3L3.22-34.3Q3.22-37.01 5.2-38.4 7.18-39.79 10.28-39.79L10.28-39.79Q13.43-39.79 15.36-38.43 17.29-37.06 17.29-34.3L17.29-34.3Q17.29-31.54 15.31-30.13 13.33-28.71 10.28-28.71ZM1.68 9.69L1.68 9.69 1.68 2.25 2.44 2.25Q5.59 2.25 5.59 0L5.59 0 5.59-18.6 1.68-18.6 1.68-24.61 17.29-26.15 17.29-2Q17.29 2.78 15.58 5.32L15.58 5.32Q13.87 7.86 10.5 8.78 7.13 9.69 1.68 9.69ZM35.94 0.44L35.94 0.44Q28.08 0.44 28.08-9.4L28.08-9.4 28.08-18.6 24.93-18.6 24.93-25.2 39.77-26.66 39.77-9.4Q39.77-8.45 40.48-7.65 41.19-6.86 42.14-6.86L42.14-6.86Q43.24-6.86 43.86-7.6 44.48-8.35 44.48-9.45L44.48-9.45 44.48-18.6 42.14-18.6 42.14-25.2 56.18-26.66 56.18-7.35 59.33-7.35 59.33 0 44.48 0 44.48-3.81Q43.19-1.81 41.03-0.68 38.87 0.44 35.94 0.44ZM80.54 0.44L80.54 0.44Q75.54 0.44 71.68-2.2L71.68-2.2 70.87 0 66.33 0 66.33-9.64 71.78-9.64Q72.09-7.79 73.51-6.32 74.92-4.86 76.78-4.86L76.78-4.86Q77.49-4.86 78.01-5.25 78.54-5.64 78.54-6.54L78.54-6.54Q78.54-7.45 77.51-8.18L77.51-8.18Q76.46-8.94 74.39-9.91L74.39-9.91Q71.87-11.16 70.29-12.18L70.29-12.18Q68.67-13.21 67.5-14.88 66.33-16.55 66.33-18.9L66.33-18.9Q66.33-21.31 67.92-23.1L67.92-23.1Q69.5-24.85 72.09-25.76 74.68-26.66 77.73-26.66L77.73-26.66Q81.71-26.66 85.13-24.56L85.13-24.56 85.74-26.15 89.79-26.15 89.79-18.36 85.08-18.36Q84.47-19.95 83.32-20.85 82.18-21.75 80.64-21.75L80.64-21.75Q78.83-21.75 78.83-20.61L78.83-20.61Q78.86-19.82 79.78-19.26L79.78-19.26Q80.71-18.73 82.79-17.8L82.79-17.8Q84.08-17.26 85.15-16.72 86.23-16.19 87.08-15.7L87.08-15.7Q88.79-14.7 90.06-12.88 91.33-11.06 91.33-8.35L91.33-8.35Q91.33-5.47 89.84-3.52L89.84-3.52Q88.35-1.54 85.89-0.55 83.42 0.44 80.54 0.44ZM111.67 0.44L111.67 0.44Q102.27 0.44 102.27-9.35L102.27-9.35 102.27-18.99 98.36-18.99 98.36-26.15 102.27-26.15 102.27-31.74 113.96-34.35 113.96-26.15 118.65-26.15 118.65-18.99 113.96-18.99 113.96-10.21Q113.96-9.11 114.79-8.37 115.62-7.64 116.87-7.64L116.87-7.64Q117.77-7.64 118.65-7.79L118.65-7.79 118.65-1Q115.43 0.44 111.67 0.44ZM163.84-7.35L163.84 0 143.55 0 143.55-7.35 147.46-7.35 147.46-18.99 143.55-18.99 143.55-26.15 147.46-26.15 147.46-28.49Q147.46-38.35 156.15-38.35L156.15-38.35Q158.05-38.35 160.25-38 162.45-37.65 163.84-37.21L163.84-37.21 163.84-30Q162.01-30.3 161.3-30.3L161.3-30.3Q159.15-30.3 159.15-27.05L159.15-27.05 159.15-26.15 163.84-26.15 163.84-18.99 159.15-18.99 159.15-7.35 163.84-7.35ZM186.54 0.44L186.54 0.44Q182.1 0.44 178.8-1.2L178.8-1.2Q175.46-2.81 173.6-5.93 171.75-9.06 171.75-13.35L171.75-13.35Q171.75-17.63 173.6-20.61L173.6-20.61Q175.46-23.61 178.8-25.13 182.15-26.66 186.54-26.66L186.54-26.66Q191.06-26.66 194.39-25.1 197.72-23.54 199.55-20.57 201.39-17.6 201.39-13.35L201.39-13.35Q201.39-9.06 199.55-5.93L199.55-5.93Q197.7-2.81 194.34-1.18 190.99 0.44 186.54 0.44ZM186.54-6.69L186.54-6.69Q188.15-6.69 188.93-8.28L188.93-8.28Q189.69-9.81 189.69-13.35L189.69-13.35Q189.69-16.6 188.95-18.05 188.2-19.51 186.54-19.51L186.54-19.51Q184.96-19.51 184.2-18.05 183.44-16.6 183.44-13.35L183.44-13.35Q183.44-9.89 184.22-8.28L184.22-8.28Q185-6.69 186.54-6.69ZM227.41-7.35L227.41 0 208.66 0 208.66-7.35 211.81-7.35 211.81-18.6 208.66-18.6 208.66-25.2 223.5-26.66 223.5-22.41Q224.29-23.63 225.8-24.6 227.31-25.56 229.03-26.11 230.76-26.66 232.12-26.66L232.12-26.66 232.12-16.31Q229.27-17.26 227.41-17.26L227.41-17.26Q225.07-17.26 224.29-15.91 223.5-14.55 223.5-12.35L223.5-12.35 223.5-7.35 227.41-7.35ZM276.24-7.35L276.24 0 255.95 0 255.95-7.35 259.85-7.35 259.85-18.99 255.95-18.99 255.95-26.15 259.85-26.15 259.85-28.49Q259.85-38.35 268.55-38.35L268.55-38.35Q270.45-38.35 272.65-38 274.85-37.65 276.24-37.21L276.24-37.21 276.24-30Q274.41-30.3 273.7-30.3L273.7-30.3Q271.55-30.3 271.55-27.05L271.55-27.05 271.55-26.15 276.24-26.15 276.24-18.99 271.55-18.99 271.55-7.35 276.24-7.35ZM294.86 0.44L294.86 0.44Q287 0.44 287-9.4L287-9.4 287-18.6 283.85-18.6 283.85-25.2 298.7-26.66 298.7-9.4Q298.7-8.45 299.4-7.65 300.11-6.86 301.06-6.86L301.06-6.86Q302.16-6.86 302.79-7.6 303.41-8.35 303.41-9.45L303.41-9.45 303.41-18.6 301.06-18.6 301.06-25.2 315.1-26.66 315.1-7.35 318.25-7.35 318.25 0 303.41 0 303.41-3.81Q302.11-1.81 299.95-0.68 297.79 0.44 294.86 0.44ZM358.22-16.6L358.22-16.6 358.22-7.06 361.61-7.06 361.61 0 346.5 0 346.5-16.65Q346.5-17.7 345.83-18.51 345.16-19.31 344.2-19.31L344.2-19.31Q342.42-19.31 341.96-17.53L341.96-17.53Q341.47-15.7 341.47-12.4L341.47-12.4 341.47-7.06 341.52-7.06 341.52 0 326.26 0 326.26-7.06 329.8-7.06 329.8-18.6 326.26-18.6 326.26-25.2 341.47-26.66 341.47-23Q343.15-25 345.3-25.83 347.45-26.66 350.16-26.66L350.16-26.66Q358.22-26.66 358.22-16.6ZM381.53-39.79L381.53-32.5 379.48-13.6 369.23-13.55 367.18-32.5 367.18-39.79 381.53-39.79ZM374.33 0.81L374.33 0.81Q371.33 0.81 369.42-0.81L369.42-0.81Q367.52-2.47 367.52-5.2L367.52-5.2Q367.52-8.01 369.42-9.64L369.42-9.64Q371.38-11.3 374.28-11.3L374.28-11.3 374.33-11.3Q377.26-11.3 379.33-9.64L379.33-9.64Q381.34-8.01 381.34-5.2L381.34-5.2Q381.34-2.47 379.38-0.81L379.38-0.81Q377.38 0.81 374.33 0.81Z" opacity="1" transform="matrix(1,0,0,1,0,0)" fill="#ffffff" class="slogan-text-1" data-fill-palette-color="secondary" id="text-1"></path></svg></g></svg></g></svg></g></svg></g><g transform="matrix(1,0,0,1,47.806288281466706,0)"><svg viewBox="0 0 96.38742343706659 98.67011937571282" height="98.67011937571282" width="96.38742343706659"><g><svg xmlns="http://www.w3.org/2000/svg" xmlns:xlink="http://www.w3.org/1999/xlink" version="1.0" x="0" y="0" viewBox="6.285 4.250492678056229 87.42900018231 89.49953818944292" enable-background="new 0 0 100 100" xml:space="preserve" height="98.67011937571282" width="96.38742343706659" class="icon-icon-0" data-fill-palette-color="accent" id="icon-0"><path d="M66.646 56.857A4.6 4.6 0 0 0 65.279 57.186 2.259 2.259 0 1 1 62.594 60.226 4.6 4.6 0 0 0 62.442 61.817 4.597 4.597 0 1 0 66.646 56.857" fill="#ffffff" data-fill-palette-color="accent"></path><path d="M52.597 62.629A4.596 4.596 0 0 0 46.271 58.754 2.257 2.257 0 0 1 45.862 63.184 2.26 2.26 0 0 1 43.587 61.795 4.6 4.6 0 0 0 43.436 63.385 4.597 4.597 0 1 0 52.597 62.629" fill="#ffffff" data-fill-palette-color="accent"></path><path d="M59.761 79.698A9.64 9.64 0 0 1 51.569 76.864 7.81 7.81 0 0 0 60.149 82.608C64.093 82.084 66.953 78.698 66.924 74.818A9.64 9.64 0 0 1 59.761 79.698" fill="#ffffff" data-fill-palette-color="accent"></path><path d="M84.53 49.854A9.06 9.06 0 0 0 79.841 51.162C76.61 45.462 71.205 41.002 63.27 39.286L65.03 38.13C65.17 38.036 65.27 37.89 65.301 37.726L65.307 37.53A0.62 0.62 0 0 0 64.895 37.018L58.435 34.763 56.63 28.163A0.624 0.624 0 0 0 55.53 27.953V27.95L51.39 33.397 44.557 33.074A0.62 0.62 0 0 0 43.981 33.396L43.915 33.579A0.63 0.63 0 0 0 44.015 34.054L47.61 39.235A64 64 0 0 0 45.668 39.588C30.13 42.696 21.273 58.562 21.273 58.562L20.523 58.413A10.6 10.6 0 0 0 16.966 57.798C11.067 57.798 6.285 62.631 6.285 68.591S11.067 79.384 16.966 79.384A10.5 10.5 0 0 0 21.376 78.421C26.808 87.869 39.168 94.218 53.317 93.723 71.091 93.1 85.288 81.903 86.278 68.245 90.512 67.419 93.714 63.657 93.714 59.136 93.715 54.009 89.602 49.854 84.53 49.854M81.628 65.068S85.243 85.848 59.22 91.27 25.25 73.741 25.25 73.741C22.719 75.006 13.28 78.724 13.14 67.778S26.152 64.345 26.152 64.345C26.373 54.719 33.192 44.563 47.36 41.143L45.496 46.073 45.466 46.175A0.63 0.63 0 0 0 45.625 46.72 0.62 0.62 0 0 0 46.26 46.891L52.81 44.92 58.148 49.197A0.625 0.625 0 0 0 59.153 48.83L59.166 48.724 59.312 41.884 61.26 40.604C73.839 43.47 78.376 56.032 78.376 56.032S85.966 51.153 88.676 57.66 81.63 65.068 81.63 65.068" fill="#ffffff" data-fill-palette-color="accent"></path><path d="M40.774 20.828L44.383 21.515 45.863 24.88 45.892 24.93A0.34 0.34 0 0 0 46.157 25.08 0.33 0.33 0 0 0 46.465 24.907S48.115 21.902 48.235 21.686C48.283 21.68 51.892 21.315 51.892 21.315A0.33 0.33 0 0 0 52.173 21.1 0.33 0.33 0 0 0 52.138 20.798L52.103 20.753 49.586 18.075 50.366 14.483A0.34 0.34 0 0 0 50.319 14.227L50.247 14.149A0.33 0.33 0 0 0 49.896 14.11L46.57 15.673 43.395 13.822A0.336 0.336 0 0 0 42.894 14.155H42.893L43.354 17.8 40.613 20.248A0.34 0.34 0 0 0 40.513 20.588L40.556 20.684C40.606 20.758 40.685 20.81 40.774 20.828" fill="#ffffff" data-fill-palette-color="accent"></path><path d="M55.298 8.136L54.466 10.225 54.456 10.258A0.206 0.206 0 0 0 54.713 10.498L56.876 9.888 58.606 11.327C58.666 11.376 58.749 11.388 58.82 11.356A0.2 0.2 0 0 0 58.938 11.21L58.942 11.175 59.031 8.93 60.93 7.73A0.2 0.2 0 0 0 61.024 7.598L61.026 7.534A0.2 0.2 0 0 0 60.894 7.362L58.784 6.584 58.23 4.404A0.206 0.206 0 0 0 57.869 4.329S56.494 6.071 56.478 6.094L54.234 5.948A0.21 0.21 0 0 0 54.042 6.05L54.02 6.11A0.2 0.2 0 0 0 54.05 6.267z" fill="#ffffff" data-fill-palette-color="accent"></path></svg></g></svg></g><g></g></svg></g></svg></g></svg></g></svg></g><defs></defs></svg><rect width="320" height="360" fill="none" stroke="none" visibility="hidden"></rect></g></svg></g></svg>