<svg xmlns="http://www.w3.org/2000/svg"  viewBox="0 0 64 64" width="64px" height="64px" baseProfile="basic"><path fill="#fd3c4f" d="M54,20c0-5.523-4.477-10-10-10H32H20c-5.523,0-10,4.477-10,10v24.008c0,5.523,4.477,10,10,10h12h12 c5.523,0,10-4.477,10-10V20z"/><ellipse cx="32" cy="61" opacity=".3" rx="20" ry="3"/><path fill="#fff" d="M14.01,12H14c-2.24,1.69-3.75,4.29-3.97,7.25C10.01,19.49,10,19.75,10,20v12 c2.761,0,5-2.239,5-5v-7c0-0.108,0.003-0.221,0.017-0.38c0.102-1.375,0.778-2.65,1.862-3.525c0.048-0.033,0.095-0.068,0.142-0.103 C17.881,15.343,18.911,15,20,15h5c2.761,0,5-2.239,5-5H20C17.75,10,15.68,10.74,14.01,12z" opacity=".3"/><path d="M54,44V22c-2.761,0-5,2.238-5,5v17c0,2.757-2.243,5-5,5h-5c-2.761,0-5,2.238-5,5h10 C49.523,54,54,49.523,54,44z" opacity=".15"/><path fill="none" stroke="#fff" stroke-linecap="round" stroke-linejoin="round" stroke-miterlimit="10" stroke-width="3" d="M13.5,23.5V20c0-0.153,0.005-0.312,0.018-0.459c0.135-1.809,1.003-3.46,2.396-4.594l0.204-0.152"/><path fill="#fff" d="M45,49H20c-2.209,0-4-1.791-4-4V35c0-2.209,1.791-4,4-4h25c2.209,0,4,1.791,4,4v10	C49,47.209,47.209,49,45,49z"/><path fill="#fff" d="M20.698,16.041l2.385,8.617v3.808c0,0.453,0.368,0.821,0.821,0.821h0.672	c0.453,0,0.821-0.368,0.821-0.821v-3.808l2.415-8.614C27.96,15.519,27.565,15,27.022,15H26.43c-0.385,0-0.719,0.268-0.802,0.644	l-0.828,3.751c-0.273,1.283-0.446,2.196-0.526,2.739h-0.071c-0.114-0.762-0.287-1.681-0.526-2.758l-0.796-3.727	C22.801,15.271,22.466,15,22.079,15H21.49C20.947,15,20.554,15.517,20.698,16.041z M30.805,18.647c-0.784,0-1.417,0.154-1.899,0.467	c-0.482,0.309-0.839,0.807-1.066,1.489c-0.226,0.681-0.338,1.583-0.338,2.707v1.518c0,1.111,0.098,2.003,0.297,2.673	c0.199,0.67,0.535,1.164,1.006,1.482c0.47,0.316,1.119,0.476,1.946,0.476c0.806,0,1.447-0.157,1.917-0.47	c0.47-0.313,0.81-0.803,1.019-1.479c0.209-0.676,0.315-1.569,0.315-2.682V23.31c0-1.122-0.107-2.021-0.322-2.696	c-0.215-0.674-0.557-1.171-1.023-1.489C32.191,18.804,31.576,18.647,30.805,18.647z M36.048,18.851	c-0.453,0-0.821,0.368-0.821,0.821v6.975c0,0.965,0.161,1.675,0.49,2.129c0.329,0.453,0.84,0.681,1.533,0.681	c0.997,0,1.75-0.482,2.248-1.447h0.048l0.094,0.586c0.064,0.398,0.407,0.692,0.811,0.692h0.318c0.453,0,0.821-0.368,0.821-0.821	v-8.793c0-0.453-0.368-0.821-0.821-0.821h-0.705c-0.453,0-0.821,0.368-0.821,0.821v7.47c-0.09,0.193-0.228,0.352-0.416,0.477	c-0.188,0.126-0.381,0.188-0.586,0.188c-0.238,0-0.408-0.098-0.512-0.297c-0.104-0.199-0.155-0.533-0.155-1v-6.839	c0-0.453-0.368-0.821-0.821-0.821H36.048z M30.751,20.262c0.329,0,0.562,0.172,0.692,0.518c0.13,0.345,0.193,0.895,0.193,1.644	v3.251c0,0.771-0.063,1.33-0.193,1.67s-0.361,0.509-0.688,0.512c-0.329,0-0.557-0.172-0.681-0.512	c-0.126-0.34-0.188-0.898-0.188-1.67v-3.25c0-0.748,0.063-1.298,0.193-1.644C30.21,20.436,30.433,20.262,30.751,20.262z"/><path fill="#fd3c4f" d="M20.859,34.394h4.278c0.442,0,0.799,0.358,0.799,0.799l0,0c0,0.442-0.358,0.799-0.799,0.799h-1.171	v9.64c0,0.453-0.368,0.821-0.821,0.821h-0.294c-0.453,0-0.821-0.368-0.821-0.821v-9.639h-1.171c-0.442,0-0.799-0.358-0.799-0.799	l0,0C20.06,34.752,20.417,34.394,20.859,34.394z"/><path fill="#fd3c4f" d="M26.165,37.645h0.345c0.453,0,0.821,0.368,0.821,0.821v5.648c0,0.392,0.044,0.674,0.13,0.84	c0.087,0.168,0.228,0.251,0.43,0.251c0.172,0,0.34-0.053,0.497-0.159c0.159-0.105,0.271-0.241,0.349-0.403v-6.178	c0-0.453,0.368-0.821,0.821-0.821h0.345c0.453,0,0.821,0.368,0.821,0.821l-0.003,7.167c0,0.453-0.368,0.821-0.821,0.821h-0.029	c-0.404,0-0.748-0.294-0.812-0.694L29,45.373h-0.045c-0.423,0.816-1.056,1.226-1.899,1.226c-0.586,0-1.014-0.191-1.292-0.575	s-0.419-0.983-0.419-1.796v-5.762C25.343,38.013,25.711,37.645,26.165,37.645z"/><path fill="#fd3c4f" d="M32.741,33.95h0.267c0.453,0,0.821,0.368,0.821,0.821v3.82h0.015	c0.172-0.336,0.417-0.605,0.734-0.812c0.316-0.206,0.658-0.307,1.023-0.307c0.47,0,0.837,0.125,1.104,0.374	c0.268,0.25,0.462,0.652,0.582,1.207c0.119,0.557,0.177,1.328,0.177,2.315v1.393h0.003c0,1.313-0.161,2.277-0.477,2.895	c-0.316,0.618-0.807,0.929-1.479,0.929c-0.374,0-0.712-0.087-1.019-0.259s-0.539-0.408-0.692-0.706l-0.099-0.053l-0.057,0.165	c-0.06,0.403-0.406,0.7-0.812,0.7h-0.09c-0.453,0-0.821-0.368-0.821-0.821l0-10.84C31.92,34.318,32.288,33.95,32.741,33.95z M41.044,37.475c0.679,0,1.202,0.125,1.566,0.374c0.363,0.25,0.62,0.64,0.77,1.166c0.148,0.527,0.223,1.256,0.223,2.185v0.689	c0,0.453-0.368,0.821-0.821,0.821h-2.496v0.448c0,0.566,0.015,0.988,0.048,1.271c0.035,0.282,0.103,0.49,0.208,0.618	c0.105,0.13,0.268,0.193,0.488,0.193c0.297,0,0.5-0.116,0.611-0.345c0.054-0.112,0.096-0.26,0.126-0.445	c0.066-0.405,0.453-0.679,0.863-0.65c0.036,0.002,0.073,0.006,0.11,0.008c0.495,0.038,0.842,0.504,0.747,0.992	c-0.103,0.527-0.315,0.924-0.61,1.189c-0.446,0.403-1.074,0.604-1.888,0.604c-0.977,0-1.664-0.309-2.058-0.922	s-0.589-1.56-0.589-2.845v-1.539c0-1.322,0.205-2.289,0.611-2.899C39.358,37.781,40.058,37.475,41.044,37.475z M41.001,38.817	c-0.211,0-0.369,0.065-0.47,0.188c-0.101,0.125-0.168,0.329-0.2,0.611c-0.035,0.282-0.048,0.711-0.048,1.285v0.632h1.451v-0.632	c0-0.566-0.018-0.992-0.056-1.285c-0.036-0.292-0.107-0.499-0.208-0.618S41.213,38.817,41.001,38.817z M34.709,38.882	c-0.191,0-0.367,0.076-0.53,0.229c-0.163,0.154-0.278,0.351-0.345,0.589v5.002c0.087,0.154,0.2,0.268,0.34,0.345	c0.139,0.076,0.287,0.116,0.452,0.116c0.211,0,0.376-0.076,0.5-0.229c0.125-0.154,0.215-0.412,0.268-0.777	c0.053-0.363,0.078-0.869,0.078-1.511v-1.133c0-0.69-0.02-1.221-0.063-1.596c-0.044-0.374-0.121-0.643-0.229-0.801	C35.068,38.959,34.911,38.882,34.709,38.882z"/></svg>